<svg width="75" height="33" viewBox="0 0 75 33" fill="none" xmlns="http://www.w3.org/2000/svg">
<rect width="75" height="32.1429" rx="16.0714" fill="#5669FF"/>
<path d="M16.1622 6.28955C10.8414 6.28955 6.51245 10.6185 6.51245 15.9393C6.51245 21.2601 10.8414 25.589 16.1622 25.589C21.483 25.589 25.8119 21.2601 25.8119 15.9393C25.8119 10.6185 21.483 6.28955 16.1622 6.28955ZM17.6467 20.393H14.6776C14.4807 20.393 14.2919 20.3148 14.1527 20.1756C14.0135 20.0364 13.9353 19.8476 13.9353 19.6507C13.9353 19.4538 14.0135 19.265 14.1527 19.1258C14.2919 18.9866 14.4807 18.9084 14.6776 18.9084H17.6467C17.8436 18.9084 18.0324 18.9866 18.1716 19.1258C18.3108 19.265 18.389 19.4538 18.389 19.6507C18.389 19.8476 18.3108 20.0364 18.1716 20.1756C18.0324 20.3148 17.8436 20.393 17.6467 20.393ZM19.8736 17.4238H12.4507C12.2539 17.4238 12.0651 17.3456 11.9259 17.2064C11.7867 17.0672 11.7084 16.8784 11.7084 16.6815C11.7084 16.4847 11.7867 16.2959 11.9259 16.1567C12.0651 16.0175 12.2539 15.9393 12.4507 15.9393H19.8736C20.0705 15.9393 20.2593 16.0175 20.3985 16.1567C20.5377 16.2959 20.6159 16.4847 20.6159 16.6815C20.6159 16.8784 20.5377 17.0672 20.3985 17.2064C20.2593 17.3456 20.0705 17.4238 19.8736 17.4238ZM21.3582 14.4547H10.9662C10.7693 14.4547 10.5805 14.3765 10.4413 14.2373C10.3021 14.0981 10.2239 13.9093 10.2239 13.7124C10.2239 13.5155 10.3021 13.3267 10.4413 13.1875C10.5805 13.0483 10.7693 12.9701 10.9662 12.9701H21.3582C21.555 12.9701 21.7438 13.0483 21.883 13.1875C22.0222 13.3267 22.1004 13.5155 22.1004 13.7124C22.1004 13.9093 22.0222 14.0981 21.883 14.2373C21.7438 14.3765 21.555 14.4547 21.3582 14.4547Z" fill="white"/>
<path d="M33.9646 19.7449V11.2249H38.7646V12.1489H34.9726V15.0769H38.4166V16.0009H34.9726V19.7449H33.9646ZM41.3719 11.7409C41.3719 11.8609 41.3399 11.9729 41.2759 12.0769C41.2199 12.1729 41.1399 12.2529 41.0359 12.3169C40.9399 12.3729 40.8319 12.4009 40.7119 12.4009C40.5919 12.4009 40.4799 12.3729 40.3759 12.3169C40.2799 12.2529 40.1999 12.1729 40.1359 12.0769C40.0799 11.9729 40.0519 11.8609 40.0519 11.7409C40.0519 11.6209 40.0799 11.5129 40.1359 11.4169C40.1999 11.3129 40.2799 11.2329 40.3759 11.1769C40.4799 11.1129 40.5919 11.0809 40.7119 11.0809C40.8319 11.0809 40.9399 11.1129 41.0359 11.1769C41.1399 11.2329 41.2199 11.3129 41.2759 11.4169C41.3399 11.5129 41.3719 11.6209 41.3719 11.7409ZM40.2319 19.7449V13.5529H41.1919V19.7449H40.2319ZM42.8686 19.7449V10.8409H43.8286V19.7449H42.8686ZM47.8213 19.9249C47.4453 19.9249 47.1213 19.8489 46.8493 19.6969C46.5773 19.5449 46.3653 19.3209 46.2133 19.0249C46.0693 18.7289 45.9973 18.3689 45.9973 17.9449V14.3689H44.8573V13.5529H45.9973V11.4769H46.9573V13.5529H48.9013V14.3689H46.9573V17.8969C46.9573 18.2649 47.0333 18.5529 47.1853 18.7609C47.3453 18.9609 47.5853 19.0609 47.9053 19.0609C48.0733 19.0609 48.2413 19.0369 48.4093 18.9889C48.5853 18.9329 48.7413 18.8609 48.8773 18.7729L49.1653 19.5169C48.9973 19.6369 48.8013 19.7329 48.5773 19.8049C48.3533 19.8849 48.1013 19.9249 47.8213 19.9249ZM53.0945 19.9249C52.6385 19.9249 52.2185 19.8449 51.8345 19.6849C51.4585 19.5249 51.1305 19.3009 50.8505 19.0129C50.5705 18.7169 50.3545 18.3729 50.2025 17.9809C50.0505 17.5809 49.9745 17.1409 49.9745 16.6609C49.9745 16.1889 50.0465 15.7569 50.1905 15.3649C50.3425 14.9649 50.5505 14.6169 50.8145 14.3209C51.0865 14.0249 51.4025 13.7969 51.7625 13.6369C52.1225 13.4689 52.5145 13.3849 52.9385 13.3849C53.3465 13.3849 53.7225 13.4609 54.0665 13.6129C54.4185 13.7649 54.7225 13.9769 54.9785 14.2489C55.2345 14.5209 55.4305 14.8449 55.5665 15.2209C55.7105 15.5969 55.7825 16.0049 55.7825 16.4449V16.8409H50.9705C51.0025 17.2889 51.1065 17.6809 51.2825 18.0169C51.4665 18.3529 51.7105 18.6129 52.0145 18.7969C52.3185 18.9809 52.6705 19.0729 53.0705 19.0729C53.4625 19.0729 53.8025 18.9929 54.0905 18.8329C54.3865 18.6649 54.6385 18.4209 54.8465 18.1009L55.6625 18.4729C55.5025 18.7769 55.2945 19.0369 55.0385 19.2529C54.7825 19.4689 54.4865 19.6329 54.1505 19.7449C53.8225 19.8649 53.4705 19.9249 53.0945 19.9249ZM52.9385 14.2009C52.6105 14.2009 52.3105 14.2809 52.0385 14.4409C51.7745 14.6009 51.5505 14.8249 51.3665 15.1129C51.1905 15.3929 51.0745 15.7209 51.0185 16.0969H54.7745C54.7425 15.7209 54.6425 15.3929 54.4745 15.1129C54.3065 14.8249 54.0905 14.6009 53.8265 14.4409C53.5625 14.2809 53.2665 14.2009 52.9385 14.2009ZM57.1537 19.7449V13.5529H58.0177L58.0777 14.7049C58.2297 14.3209 58.4577 14.0209 58.7617 13.8049C59.0657 13.5809 59.4217 13.4689 59.8297 13.4689C59.9657 13.4689 60.0857 13.4809 60.1897 13.5049C60.3017 13.5209 60.3977 13.5449 60.4777 13.5769L60.3577 14.4889C60.2697 14.4569 60.1777 14.4369 60.0817 14.4289C59.9857 14.4129 59.8897 14.4049 59.7937 14.4049C59.4577 14.4049 59.1617 14.4889 58.9057 14.6569C58.6577 14.8249 58.4617 15.0649 58.3177 15.3769C58.1817 15.6809 58.1137 16.0409 58.1137 16.4569V19.7449H57.1537ZM63.6097 19.9249C63.2497 19.9249 62.9097 19.8649 62.5897 19.7449C62.2777 19.6249 62.0057 19.4529 61.7737 19.2289C61.5417 19.0049 61.3657 18.7409 61.2457 18.4369L62.1097 18.1249C62.2697 18.4289 62.4777 18.6649 62.7337 18.8329C62.9897 19.0009 63.2817 19.0849 63.6097 19.0849C63.8737 19.0849 64.1057 19.0409 64.3057 18.9529C64.5057 18.8649 64.6617 18.7449 64.7737 18.5929C64.8857 18.4329 64.9417 18.2569 64.9417 18.0649C64.9417 17.5449 64.5657 17.2089 63.8137 17.0569L63.3457 16.9609C62.6897 16.8329 62.2057 16.6249 61.8937 16.3369C61.5817 16.0409 61.4257 15.6689 61.4257 15.2209C61.4257 14.8609 61.5177 14.5409 61.7017 14.2609C61.8857 13.9809 62.1417 13.7649 62.4697 13.6129C62.8057 13.4529 63.1857 13.3729 63.6097 13.3729C63.9617 13.3729 64.2857 13.4329 64.5817 13.5529C64.8777 13.6649 65.1297 13.8329 65.3377 14.0569C65.5537 14.2809 65.7177 14.5449 65.8297 14.8489L64.9657 15.1369C64.8377 14.8409 64.6537 14.6129 64.4137 14.4529C64.1817 14.2849 63.9097 14.2009 63.5977 14.2009C63.3577 14.2009 63.1457 14.2409 62.9617 14.3209C62.7857 14.4009 62.6457 14.5089 62.5417 14.6449C62.4377 14.7809 62.3857 14.9409 62.3857 15.1249C62.3857 15.3809 62.4817 15.5849 62.6737 15.7369C62.8737 15.8889 63.1937 16.0089 63.6337 16.0969L64.1017 16.1929C64.6937 16.3129 65.1457 16.5249 65.4577 16.8289C65.7697 17.1249 65.9257 17.5049 65.9257 17.9689C65.9257 18.2569 65.8657 18.5209 65.7457 18.7609C65.6337 18.9929 65.4737 19.1969 65.2657 19.3729C65.0657 19.5489 64.8217 19.6849 64.5337 19.7809C64.2537 19.8769 63.9457 19.9249 63.6097 19.9249Z" fill="#ECEBFC"/>
</svg>
