<?xml version="1.0" standalone="no"?>
<!DOCTYPE svg PUBLIC "-//W3C//DTD SVG 20010904//EN"
 "http://www.w3.org/TR/2001/REC-SVG-20010904/DTD/svg10.dtd">
<svg version="1.0" xmlns="http://www.w3.org/2000/svg"
 width="512.000000pt" height="512.000000pt" viewBox="0 0 512.000000 512.000000"
 preserveAspectRatio="xMidYMid meet">

<g transform="translate(0.000000,512.000000) scale(0.100000,-0.100000)"
fill="#000000" stroke="none">
<path d="M800 4641 c-88 -28 -140 -60 -201 -120 -61 -61 -97 -123 -123 -210
-14 -46 -16 -116 -16 -461 0 -393 1 -408 20 -433 27 -34 70 -43 109 -23 16 9
33 22 38 28 4 7 10 200 13 428 5 412 5 415 29 460 32 61 76 107 136 138 l50
27 415 5 c228 3 421 9 428 13 6 5 19 22 28 38 20 39 11 82 -23 109 -25 19 -40
20 -437 19 -366 0 -417 -2 -466 -18z"/>
<path d="M3417 4640 c-34 -27 -43 -70 -23 -109 9 -16 22 -33 28 -38 7 -4 200
-10 428 -13 412 -5 415 -5 460 -29 61 -32 107 -76 138 -136 l27 -50 5 -415 c3
-228 9 -421 13 -428 5 -6 22 -19 38 -28 39 -20 82 -11 109 23 19 25 20 40 20
433 0 440 -1 454 -57 564 -32 64 -125 157 -189 189 -110 56 -124 57 -564 57
-393 0 -408 -1 -433 -20z"/>
<path d="M1916 3666 c-410 -237 -613 -360 -622 -377 -20 -36 -20 -1422 0
-1458 20 -37 1227 -731 1269 -731 23 1 198 97 627 345 327 189 607 354 622
368 l28 25 0 713 c0 547 -3 720 -13 738 -8 17 -199 132 -622 377 -488 282
-617 353 -645 353 -28 0 -163 -74 -644 -353z m1142 -127 c268 -154 491 -284
495 -288 7 -7 -974 -581 -992 -581 -16 0 -987 565 -988 575 -1 11 963 573 985
574 7 1 232 -125 500 -280z m-1080 -748 l492 -284 0 -579 0 -580 -62 35 c-35
20 -261 150 -503 290 l-440 254 -3 577 c-2 471 0 577 11 574 7 -2 234 -131
505 -287z m1680 -288 l-3 -577 -499 -288 c-275 -158 -501 -288 -503 -288 -1 0
-3 260 -3 578 l0 578 498 287 c273 158 500 287 505 287 4 0 6 -260 5 -577z"/>
<path d="M514 1730 c-54 -22 -54 -22 -54 -460 0 -440 1 -454 57 -564 32 -64
125 -157 189 -189 110 -56 124 -57 564 -57 393 0 408 1 433 20 34 27 43 70 23
109 -9 16 -22 33 -28 38 -7 4 -200 10 -428 13 l-415 5 -50 27 c-60 31 -104 77
-136 138 -24 45 -24 48 -30 465 -3 231 -6 421 -7 423 -1 1 -17 11 -34 22 -36
22 -51 23 -84 10z"/>
<path d="M4523 1721 c-18 -12 -34 -22 -35 -23 -1 -2 -4 -192 -7 -423 -6 -417
-6 -420 -30 -465 -32 -61 -76 -107 -136 -138 l-50 -27 -415 -5 c-228 -3 -421
-9 -428 -13 -6 -5 -19 -22 -28 -38 -20 -39 -11 -82 23 -109 25 -19 40 -20 433
-20 440 0 454 1 564 57 64 32 157 125 189 189 56 110 57 124 57 565 l0 408
-22 25 c-32 36 -75 42 -115 17z"/>
</g>
</svg>
