<svg width="24" height="25" viewBox="0 0 24 25" fill="none" xmlns="http://www.w3.org/2000/svg">
<path d="M12 12.5V12.51M8 12.5V12.51M16 12.5V12.51M3 20.5L4.3 16.6C3.17644 14.9383 2.76999 12.9704 3.15622 11.0623C3.54244 9.15421 4.69506 7.43569 6.39977 6.22629C8.10447 5.01689 10.2453 4.39892 12.4241 4.48726C14.6029 4.5756 16.6715 5.36425 18.2453 6.70658C19.819 8.0489 20.7909 9.85356 20.9801 11.785C21.1693 13.7164 20.563 15.6432 19.2739 17.2071C17.9848 18.771 16.1007 19.8656 13.9718 20.2874C11.8429 20.7091 9.6142 20.4293 7.7 19.5L3 20.5Z" stroke="black" stroke-opacity="0.34" stroke-width="2" stroke-linecap="round" stroke-linejoin="round"/>
</svg>
