<svg width="30" height="30" viewBox="0 0 30 30" fill="none" xmlns="http://www.w3.org/2000/svg">
<path fill-rule="evenodd" clip-rule="evenodd" d="M9.25563 21.6963C13.5338 21.0713 16.4794 21.125 20.7631 21.7181C21.0734 21.7631 21.3568 21.9188 21.5612 22.1565C21.7656 22.3942 21.877 22.6978 21.875 23.0113C21.875 23.3113 21.7719 23.6025 21.5856 23.83C21.261 24.2266 20.9284 24.6167 20.5881 25H22.2388C22.3425 24.8763 22.4469 24.75 22.5525 24.6219C22.9232 24.1673 23.1255 23.5985 23.125 23.0119C23.125 21.7463 22.2012 20.6556 20.9344 20.4806C16.5494 19.8738 13.4844 19.8156 9.075 20.46C7.795 20.6469 6.875 21.7544 6.875 23.0288C6.875 23.5944 7.05938 24.1538 7.40875 24.6069C7.51188 24.7406 7.61375 24.8719 7.715 25.0006H9.32562C9.00901 24.6216 8.7002 24.2361 8.39938 23.8444C8.2206 23.6099 8.12416 23.323 8.125 23.0281C8.125 22.355 8.60875 21.7906 9.25563 21.6963ZM15 15.625C15.4925 15.625 15.9801 15.528 16.4351 15.3395C16.89 15.1511 17.3034 14.8749 17.6517 14.5267C17.9999 14.1784 18.2761 13.765 18.4645 13.3101C18.653 12.8551 18.75 12.3675 18.75 11.875C18.75 11.3825 18.653 10.8949 18.4645 10.4399C18.2761 9.98497 17.9999 9.57157 17.6517 9.22335C17.3034 8.87513 16.89 8.59891 16.4351 8.41045C15.9801 8.222 15.4925 8.125 15 8.125C14.0054 8.125 13.0516 8.52009 12.3483 9.22335C11.6451 9.92661 11.25 10.8804 11.25 11.875C11.25 12.8696 11.6451 13.8234 12.3483 14.5267C13.0516 15.2299 14.0054 15.625 15 15.625ZM15 16.875C16.3261 16.875 17.5979 16.3482 18.5355 15.4105C19.4732 14.4729 20 13.2011 20 11.875C20 10.5489 19.4732 9.27715 18.5355 8.33947C17.5979 7.40178 16.3261 6.875 15 6.875C13.6739 6.875 12.4021 7.40178 11.4645 8.33947C10.5268 9.27715 10 10.5489 10 11.875C10 13.2011 10.5268 14.4729 11.4645 15.4105C12.4021 16.3482 13.6739 16.875 15 16.875Z" fill="black" fill-opacity="0.34"/>
<path fill-rule="evenodd" clip-rule="evenodd" d="M15 26.25C21.2131 26.25 26.25 21.2131 26.25 15C26.25 8.78687 21.2131 3.75 15 3.75C8.78687 3.75 3.75 8.78687 3.75 15C3.75 21.2131 8.78687 26.25 15 26.25ZM15 27.5C21.9037 27.5 27.5 21.9037 27.5 15C27.5 8.09625 21.9037 2.5 15 2.5C8.09625 2.5 2.5 8.09625 2.5 15C2.5 21.9037 8.09625 27.5 15 27.5Z" fill="black" fill-opacity="0.34"/>
</svg>
